# xmcd
#
# Track frame offsets: 
#        150
#        13404
#        24132
#        36911
#        49411
#        62134
#        71492
#        84477
#        96968
#        109660
#        121637
#        135218
#        148618
#        160591
#        172564
#        183573
#        195866
#        208974
#        222728
#        234768
#        247526
#        259434
#
# Disc length: 3633 seconds
#
# Revision: 0
# Processed by: cddbd v1.5.2PL0 Copyright (c) Steve Scherf et al.
# Submitted via: ExactAudioCopy v0.95a3
#
DISCID=260e2f16
DTITLE=Various Artist - Cajun Music-Musique de la Louisiana
DYEAR=2008
DGENRE=Blues
TTITLE0=Hank Williams - Jambalaya
TTITLE1=Jimmy C. Newman - Diggy Diggy Lo
TTITLE2=Nathan Ashbire - Pine Grove Blues
TTITLE3=Eddie Shuler - Jambalaya Boogie
TTITLE4=Link Davis - Big Mamou
TTITLE5=Gene Rodrigue - Jolie Fille
TTITLE6=Marion Marcotte - La Noce a Rosalie
TTITLE7=Harry Choates - Jolie Blonde
TTITLE8=Foyd Leblanc - Louisiana Stomp
TTITLE9=Happy Fats - T'as Oublié de Venir
TTITLE10=Joseph Falcon - Allons À Lafayette
TTITLE11=J.B Fuselier - Chère te te
TTITLE12=Thibodeaux Boys - Tu Peux Pas M'Arreter
TTITLE13=Happy Fats and Harry Choates - Lake Charles Shuffle
TTITLE14=Harry Choates - Hackberry Hop
TTITLE15=Iry Lejeune - Lacassine Special
TTITLE16=hackberry Ramblers - Neath the Weeping Willow Three
TTITLE17=Leo Soileau - Valse de Gaydan
TTITLE18=Rayno Bo Ramblers - Rayne Breakdown
TTITLE19=Dixie Ramblers - Barroom Blues
TTITLE20=Jolly Boys of Lafayette - Jolly Boy Stomp
TTITLE21=Papa Cairo - Grand Texas
EXTD=
EXTT0=
EXTT1=
EXTT2=
EXTT3=
EXTT4=
EXTT5=
EXTT6=
EXTT7=
EXTT8=
EXTT9=
EXTT10=
EXTT11=
EXTT12=
EXTT13=
EXTT14=
EXTT15=
EXTT16=
EXTT17=
EXTT18=
EXTT19=
EXTT20=
EXTT21=
PLAYORDER=
